<svg width="105" height="18" viewBox="0 0 105 18" fill="none" xmlns="http://www.w3.org/2000/svg">
<path fill-rule="evenodd" clip-rule="evenodd" d="M8.28949 14.0412L4.0662 16.3441C3.70048 16.5435 3.26557 16.2345 3.33353 15.8236L4.14475 10.9179L0.69181 7.42699C0.404191 7.13621 0.568347 6.64191 0.972777 6.58096L5.7279 5.86431L7.838 1.4298C8.01892 1.04958 8.56006 1.04958 8.74099 1.4298L10.8511 5.86431L15.6062 6.58096C16.0106 6.64191 16.1748 7.13621 15.8872 7.42699L12.4342 10.9179L13.2455 15.8235C13.3134 16.2345 12.8785 16.5435 12.5128 16.3441L8.28949 14.0412Z" fill="#F59914"/>
<path fill-rule="evenodd" clip-rule="evenodd" d="M30.3951 14.0412L26.1718 16.3441C25.8061 16.5435 25.3712 16.2345 25.4391 15.8236L26.2503 10.9179L22.7974 7.42699C22.5098 7.13621 22.6739 6.64191 23.0784 6.58096L27.8335 5.86431L29.9436 1.4298C30.1245 1.04958 30.6657 1.04958 30.8466 1.4298L32.9567 5.86431L37.7118 6.58096C38.1162 6.64191 38.2804 7.13621 37.9928 7.42699L34.5398 10.9179L35.351 15.8235C35.419 16.2345 34.9841 16.5435 34.6184 16.3441L30.3951 14.0412Z" fill="#F59914"/>
<path fill-rule="evenodd" clip-rule="evenodd" d="M52.5006 14.5217L48.2773 16.8246C47.9115 17.024 47.4766 16.715 47.5446 16.304L48.3558 11.3984L44.9029 7.90746C44.6153 7.61668 44.7794 7.12238 45.1838 7.06143L49.939 6.34478L52.0491 1.91027C52.23 1.53005 52.7711 1.53005 52.952 1.91027L55.0621 6.34478L59.8173 7.06143C60.2217 7.12238 60.3859 7.61667 60.0982 7.90746L56.6453 11.3984L57.4565 16.304C57.5245 16.715 57.0896 17.024 56.7239 16.8246L52.5006 14.5217Z" fill="#F59914"/>
<path fill-rule="evenodd" clip-rule="evenodd" d="M74.6049 14.0412L70.3816 16.3441C70.0159 16.5435 69.581 16.2345 69.649 15.8236L70.4602 10.9179L67.0072 7.42699C66.7196 7.13621 66.8838 6.64191 67.2882 6.58096L72.0433 5.86431L74.1534 1.4298C74.3344 1.04958 74.8755 1.04958 75.0564 1.4298L77.1665 5.86431L81.9216 6.58096C82.3261 6.64191 82.4902 7.13621 82.2026 7.42699L78.7497 10.9179L79.5609 15.8235C79.6288 16.2345 79.1939 16.5435 78.8282 16.3441L74.6049 14.0412Z" fill="#F59914"/>
<path fill-rule="evenodd" clip-rule="evenodd" d="M96.7104 14.0412L92.4871 16.3441C92.1214 16.5435 91.6865 16.2345 91.7544 15.8235L92.5656 10.9179L89.1127 7.42699C88.8251 7.13621 88.9892 6.64191 89.3937 6.58096L94.1488 5.86431L96.2589 1.4298C96.4398 1.04958 96.981 1.04958 97.1619 1.4298L99.272 5.86431L104.027 6.58096C104.432 6.64191 104.596 7.13621 104.308 7.42699L100.855 10.9179L101.666 15.8235C101.734 16.2345 101.299 16.5435 100.934 16.3441L96.7104 14.0412Z" stroke="#9B9B9B"/>
</svg>
